<?xml version="1.0" encoding="utf-8"?>
<svg aria-hidden="true" style="position: absolute; width: 0; height: 0; overflow: hidden;" version="1.1" xmlns="http://www.w3.org/2000/svg" xmlns:xlink="http://www.w3.org/1999/xlink">
<defs>

<symbol id="layouts" viewBox="0 0 24 24">
<path d="M20.7,6.6C20.6,6.6,20.6,6.6,20.7,6.6L20.7,6.6h-1.2V6.2c0-0.2-0.1-0.3-0.3-0.3c-0.8-0.2-1.7-0.3-2.5-0.3
			c-1.4,0-3.3,0.3-4.7,1.7c-1.4-1.4-3.3-1.7-4.7-1.7c-0.8,0-1.7,0.1-2.5,0.3c-0.2,0-0.3,0.2-0.3,0.3v0.4H3.3C3.2,6.6,3,6.8,3,7v11.1
			c0,0.2,0.2,0.3,0.3,0.3c0.1,0,0.1,0,0.2,0c0,0,3.5-1.9,8.4-0.7H12h0c0,0,0.1,0,0.1,0c4.9-1.2,8.4,0.7,8.4,0.7
			c0.1,0.1,0.2,0.1,0.3,0c0.1-0.1,0.2-0.2,0.2-0.3V7C21,6.8,20.8,6.6,20.7,6.6z M3.7,17.6V7.3h0.8v8.8c0,0.2,0.2,0.4,0.3,0.4
			c0,0,0,0,0.1,0c0.7-0.1,1.5-0.2,2.2-0.2c1,0,2,0.1,3,0.5C7.9,16.4,5.7,16.7,3.7,17.6z M7.1,15.5c-0.6,0-1.3,0-1.9,0.1V6.5
			c0.7-0.2,1.4-0.2,2.1-0.2c1.3,0,3.1,0.3,4.4,1.7l0,8.7C10.9,16.2,9.5,15.5,7.1,15.5z M12.3,8c1.2-1.4,3-1.7,4.4-1.7
			c0.7,0,1.4,0.1,2.1,0.2v9.2c-0.6-0.1-1.3-0.1-1.9-0.1c-2.4,0-3.8,0.6-4.5,1.1V8z M20.3,17.6c-2-0.8-4.2-1.1-6.4-0.9
			c1-0.3,2-0.5,3-0.5c0.7,0,1.5,0.1,2.2,0.2c0.2,0,0.4-0.1,0.4-0.3c0,0,0,0,0-0.1V7.3h0.8L20.3,17.6z"/>
</symbol>

<symbol id="photos" viewBox="0 0 24 24">
	<g>
		<path d="M14.4,9.3c0-0.9,0.7-1.6,1.7-1.6c0.9,0,1.7,0.7,1.7,1.6c0,0.9-0.7,1.6-1.7,1.6C15.2,10.9,14.4,10.2,14.4,9.3z M15.2,9.3
			c0,0.5,0.4,0.9,0.9,0.9c0.5,0,0.9-0.4,0.9-0.9c0-0.5-0.4-0.9-0.9-0.9C15.6,8.4,15.2,8.8,15.2,9.3z"/>
	</g>
	<g>
		<path d="M19,5.5H7c-0.8,0-1.5,0.7-1.5,1.5v0.2L4.8,7.1C4,7.2,3.4,8,3.5,8.7l0.8,8.5h0c0,0.1,0.1,0.3,0.1,0.4
			c0.2,0.6,0.9,1,1.5,0.9l11.9-1.1c0.4,0,0.7-0.2,1-0.5H19c0.8,0,1.5-0.7,1.5-1.5V6.9C20.5,6.1,19.8,5.5,19,5.5z M5.9,17.9
			c-0.4,0-0.7-0.2-0.8-0.5c0-0.1-0.1-0.1-0.1-0.2l0-0.3L4.2,8.7c0-0.4,0.3-0.8,0.7-0.8l0.6-0.1l0,7h0v0.7l0,0c0,0.1,0,0.3,0.1,0.4
			c0.2,0.6,0.8,1,1.4,1l8.8,0L5.9,17.9z M19.8,15.4c0,0.4-0.4,0.8-0.8,0.8H7.1c-0.4,0-0.7-0.2-0.8-0.5c0-0.1,0-0.2,0-0.2v-2.7
			L10,9.5c0.2-0.2,0.5-0.2,0.7,0l5,5c0.1,0.1,0.2,0.1,0.3,0.1c0.1,0,0.2,0,0.2-0.1c0.1-0.1,0.1-0.4,0-0.5l-0.8-0.8l1.9-1.3
			c0.2-0.1,0.4-0.1,0.6,0l2,1.4V15.4z M19.8,12.6l-1.5-1.1c-0.4-0.3-1-0.3-1.4,0l-1.9,1.4l-3.7-3.7C10.7,8.6,10,8.6,9.6,9l-3.3,2.8
			V6.9c0-0.4,0.4-0.8,0.8-0.8H19c0.4,0,0.8,0.3,0.8,0.8V12.6z"/>
	</g>
</symbol>

</defs>
</svg>