<?xml version="1.0" encoding="utf-8"?>
<svg aria-hidden="true" style="position: absolute; width: 0; height: 0; overflow: hidden;" version="1.1" xmlns="http://www.w3.org/2000/svg" xmlns:xlink="http://www.w3.org/1999/xlink">
<defs>

	<symbol id="layouts" viewBox="0 0 24 24">
	<path d="M20.7,6.6C20.6,6.6,20.6,6.6,20.7,6.6L20.7,6.6h-1.2V6.2c0-0.2-0.1-0.3-0.3-0.3c-0.8-0.2-1.7-0.3-2.5-0.3
				c-1.4,0-3.3,0.3-4.7,1.7c-1.4-1.4-3.3-1.7-4.7-1.7c-0.8,0-1.7,0.1-2.5,0.3c-0.2,0-0.3,0.2-0.3,0.3v0.4H3.3C3.2,6.6,3,6.8,3,7v11.1
				c0,0.2,0.2,0.3,0.3,0.3c0.1,0,0.1,0,0.2,0c0,0,3.5-1.9,8.4-0.7H12h0c0,0,0.1,0,0.1,0c4.9-1.2,8.4,0.7,8.4,0.7
				c0.1,0.1,0.2,0.1,0.3,0c0.1-0.1,0.2-0.2,0.2-0.3V7C21,6.8,20.8,6.6,20.7,6.6z M3.7,17.6V7.3h0.8v8.8c0,0.2,0.2,0.4,0.3,0.4
				c0,0,0,0,0.1,0c0.7-0.1,1.5-0.2,2.2-0.2c1,0,2,0.1,3,0.5C7.9,16.4,5.7,16.7,3.7,17.6z M7.1,15.5c-0.6,0-1.3,0-1.9,0.1V6.5
				c0.7-0.2,1.4-0.2,2.1-0.2c1.3,0,3.1,0.3,4.4,1.7l0,8.7C10.9,16.2,9.5,15.5,7.1,15.5z M12.3,8c1.2-1.4,3-1.7,4.4-1.7
				c0.7,0,1.4,0.1,2.1,0.2v9.2c-0.6-0.1-1.3-0.1-1.9-0.1c-2.4,0-3.8,0.6-4.5,1.1V8z M20.3,17.6c-2-0.8-4.2-1.1-6.4-0.9
				c1-0.3,2-0.5,3-0.5c0.7,0,1.5,0.1,2.2,0.2c0.2,0,0.4-0.1,0.4-0.3c0,0,0,0,0-0.1V7.3h0.8L20.3,17.6z"/>
	</symbol>

	<symbol id="photos" viewBox="0 0 24 24">
		<g>
			<path d="M14.4,9.3c0-0.9,0.7-1.6,1.7-1.6c0.9,0,1.7,0.7,1.7,1.6c0,0.9-0.7,1.6-1.7,1.6C15.2,10.9,14.4,10.2,14.4,9.3z M15.2,9.3
				c0,0.5,0.4,0.9,0.9,0.9c0.5,0,0.9-0.4,0.9-0.9c0-0.5-0.4-0.9-0.9-0.9C15.6,8.4,15.2,8.8,15.2,9.3z"/>
		</g>
		<g>
			<path d="M19,5.5H7c-0.8,0-1.5,0.7-1.5,1.5v0.2L4.8,7.1C4,7.2,3.4,8,3.5,8.7l0.8,8.5h0c0,0.1,0.1,0.3,0.1,0.4
				c0.2,0.6,0.9,1,1.5,0.9l11.9-1.1c0.4,0,0.7-0.2,1-0.5H19c0.8,0,1.5-0.7,1.5-1.5V6.9C20.5,6.1,19.8,5.5,19,5.5z M5.9,17.9
				c-0.4,0-0.7-0.2-0.8-0.5c0-0.1-0.1-0.1-0.1-0.2l0-0.3L4.2,8.7c0-0.4,0.3-0.8,0.7-0.8l0.6-0.1l0,7h0v0.7l0,0c0,0.1,0,0.3,0.1,0.4
				c0.2,0.6,0.8,1,1.4,1l8.8,0L5.9,17.9z M19.8,15.4c0,0.4-0.4,0.8-0.8,0.8H7.1c-0.4,0-0.7-0.2-0.8-0.5c0-0.1,0-0.2,0-0.2v-2.7
				L10,9.5c0.2-0.2,0.5-0.2,0.7,0l5,5c0.1,0.1,0.2,0.1,0.3,0.1c0.1,0,0.2,0,0.2-0.1c0.1-0.1,0.1-0.4,0-0.5l-0.8-0.8l1.9-1.3
				c0.2-0.1,0.4-0.1,0.6,0l2,1.4V15.4z M19.8,12.6l-1.5-1.1c-0.4-0.3-1-0.3-1.4,0l-1.9,1.4l-3.7-3.7C10.7,8.6,10,8.6,9.6,9l-3.3,2.8
				V6.9c0-0.4,0.4-0.8,0.8-0.8H19c0.4,0,0.8,0.3,0.8,0.8V12.6z"/>
		</g>
	</symbol>

	<symbol id="back" viewBox="0 0 24 24">
		<path d="M22,12c0-0.7-0.6-1.3-1.3-1.3H6.8l6.1-6.1c0.5-0.5,0.5-1.3,0-1.8c-0.5-0.5-1.3-0.5-1.8,0l-9,9C2,12,2,12,2.1,12.1l9,9
		c0.5,0.5,1.3,0.5,1.8,0c0.5-0.5,0.5-1.3,0-1.7l-6.1-6.1h13.9C21.4,13.3,22,12.7,22,12z"/>
	</symbol>

	<symbol id="control-first" viewBox="0 0 24 24">
		<g>
			<path d="M10,12C10,12,10,12,10,12c0,0.4,0.2,0.7,0.4,1l8.1,8.1l0,0c0.2,0.2,0.6,0.4,0.9,0.4c0.7,0,1.4-0.6,1.4-1.4
				c0-0.4-0.2-0.8-0.5-1L13.3,12l7.2-7.2c0.2-0.2,0.4-0.6,0.4-0.9c0-0.7-0.6-1.4-1.4-1.4c-0.4,0-0.7,0.1-0.9,0.4L10.4,11
				C10.2,11.3,10,11.6,10,12C10,12,10,12,10,12z"/>
			<path d="M3.1,12C3.1,12,3.1,12,3.1,12c0,0.4,0.2,0.7,0.4,1l8.1,8.1l0,0c0.2,0.2,0.6,0.4,0.9,0.4c0.7,0,1.4-0.6,1.4-1.4
				c0-0.4-0.2-0.8-0.5-1L6.4,12l7.2-7.2C13.8,4.6,14,4.2,14,3.9c0-0.7-0.6-1.4-1.4-1.4c-0.4,0-0.7,0.1-0.9,0.4L3.5,11
				C3.3,11.3,3.1,11.6,3.1,12C3.1,12,3.1,12,3.1,12z"/>
		</g>
	</symbol>

	<symbol id="control-next" viewBox="0 0 24 24">
		<path d="M17.4,12C17.4,12,17.4,12,17.4,12c0-0.4-0.2-0.7-0.4-1L8.9,2.9l0,0C8.6,2.7,8.3,2.5,7.9,2.5
	c-0.7,0-1.4,0.6-1.4,1.4c0,0.4,0.2,0.8,0.5,1l7.1,7.1L7,19.2c-0.2,0.2-0.4,0.6-0.4,0.9c0,0.7,0.6,1.4,1.4,1.4c0.4,0,0.7-0.1,0.9-0.4
	L17,13C17.3,12.7,17.4,12.4,17.4,12C17.4,12,17.4,12,17.4,12z"/>
	</symbol>

	<symbol id="control-back" viewBox="0 0 24 24">
		<path d="M6.6,12C6.6,12,6.6,12,6.6,12c0,0.4,0.2,0.7,0.4,1l8.1,8.1l0,0c0.2,0.2,0.6,0.4,0.9,0.4c0.7,0,1.4-0.6,1.4-1.4
	c0-0.4-0.2-0.8-0.5-1L9.8,12L17,4.8c0.2-0.2,0.4-0.6,0.4-0.9c0-0.7-0.6-1.4-1.4-1.4c-0.4,0-0.7,0.1-0.9,0.4L7,11
	C6.7,11.3,6.6,11.6,6.6,12C6.6,12,6.6,12,6.6,12z"/>
	</symbol>

	<symbol id="control-last" viewBox="0 0 24 24">
		<g>
			<path d="M14,12C14,12,14,12,14,12c0-0.4-0.2-0.7-0.4-1L5.4,2.9l0,0C5.2,2.7,4.8,2.5,4.5,2.5c-0.7,0-1.4,0.6-1.4,1.4
				c0,0.4,0.2,0.8,0.5,1l7.1,7.1l-7.2,7.2c-0.2,0.2-0.4,0.6-0.4,0.9c0,0.7,0.6,1.4,1.4,1.4c0.4,0,0.7-0.1,0.9-0.4l8.1-8.1
				C13.8,12.7,14,12.4,14,12C14,12,14,12,14,12z"/>
			<path d="M20.9,12C20.9,12,20.9,12,20.9,12c0-0.4-0.2-0.7-0.4-1l-8.1-8.1l0,0c-0.2-0.2-0.6-0.4-0.9-0.4c-0.7,0-1.4,0.6-1.4,1.4
				c0,0.4,0.2,0.8,0.5,1l7.1,7.1l-7.2,7.2c-0.2,0.2-0.4,0.6-0.4,0.9c0,0.7,0.6,1.4,1.4,1.4c0.4,0,0.7-0.1,0.9-0.4l8.1-8.1
				C20.7,12.7,20.9,12.4,20.9,12C20.9,12,20.9,12,20.9,12z"/>
		</g>
	</symbol>

	<symbol id="cart" viewBox="0 0 24 24">
		<g>
			<g>
				<path d="M21.4,9.2c-0.3-0.3-0.6-0.5-1.1-0.5h-3.7l-2-4.8c-0.1-0.3-0.5-0.4-0.7-0.3c-0.3,0.1-0.4,0.5-0.3,0.8l1.8,4.4H8.6l1.8-4.4
					c0.1-0.3,0-0.6-0.3-0.8c-0.3-0.1-0.6,0-0.7,0.3l-2,4.8H3.6c-0.4,0-0.8,0.2-1.1,0.5C2.3,9.5,2.2,10,2.3,10.4l2,9.1
					c0.1,0.6,0.7,1.1,1.3,1.1h12.7c0.6,0,1.2-0.4,1.3-1.1l2-9.1C21.8,10,21.7,9.5,21.4,9.2z M18.6,19.2c0,0.1-0.1,0.2-0.2,0.2H5.6
					c-0.1,0-0.2-0.1-0.2-0.2l-2-9.1c0-0.1,0-0.1,0-0.2c0,0,0.1-0.1,0.2-0.1h3.2l-0.1,0.4c-0.1,0.3,0,0.6,0.3,0.8c0.1,0,0.2,0,0.2,0
					c0.2,0,0.4-0.1,0.5-0.4l0.3-0.8h7.8l0.3,0.8c0.1,0.2,0.3,0.4,0.5,0.4c0.1,0,0.2,0,0.2,0c0.3-0.1,0.4-0.5,0.3-0.8l-0.1-0.4h3.2
					c0.1,0,0.1,0.1,0.2,0.1c0,0,0.1,0.1,0,0.2L18.6,19.2z"/>
			</g>
			<g>
				<path d="M15.4,12.4c-0.3,0-0.6,0.3-0.6,0.6v4.3c0,0.3,0.3,0.6,0.6,0.6s0.6-0.3,0.6-0.6V13C16,12.7,15.7,12.4,15.4,12.4z"/>
			</g>
			<g>
				<path d="M12,12.4c-0.3,0-0.6,0.3-0.6,0.6v4.3c0,0.3,0.3,0.6,0.6,0.6s0.6-0.3,0.6-0.6V13C12.6,12.7,12.3,12.4,12,12.4z"/>
			</g>
			<g>
				<path d="M8.6,12.4C8.3,12.4,8,12.7,8,13v4.3c0,0.3,0.3,0.6,0.6,0.6s0.6-0.3,0.6-0.6V13C9.2,12.7,8.9,12.4,8.6,12.4z"/>
			</g>
		</g>
	</symbol>

</defs>
</svg>